<svg width="24" height="24" viewBox="0 0 24 24" fill="none" xmlns="http://www.w3.org/2000/svg">
<path d="M8.71271 4.7994C8.52524 4.98709 8.41992 5.24163 8.41992 5.50703C8.41992 5.77243 8.52524 6.02697 8.71271 6.21466L13.2987 10.8048C13.4812 10.9951 13.5831 11.2486 13.5831 11.5124C13.5831 11.7762 13.4812 12.0297 13.2987 12.22L8.71271 16.8101C8.53055 16.9989 8.42976 17.2517 8.43203 17.5142C8.43431 17.7766 8.53948 18.0276 8.72489 18.2132C8.9103 18.3988 9.16111 18.504 9.42331 18.5063C9.6855 18.5086 9.93811 18.4077 10.1267 18.2254L14.7127 13.6363C14.9913 13.3575 15.2124 13.0264 15.3632 12.6621C15.514 12.2977 15.5916 11.9073 15.5916 11.5129C15.5916 11.1185 15.514 10.728 15.3632 10.3637C15.2124 9.99936 14.9913 9.66833 14.7127 9.38949L10.1267 4.79939C9.93918 4.61176 9.68487 4.50635 9.41971 4.50635C9.15454 4.50635 8.90024 4.61176 8.71271 4.7994Z" fill="#1A1B22"/>
</svg>
