<svg width="157" height="113" viewBox="0 0 157 113" fill="none" xmlns="http://www.w3.org/2000/svg">
<path d="M102 8C111.889 8 121.556 10.9324 129.779 16.4265C138.001 21.9206 144.41 29.7295 148.194 38.8658C151.978 48.0021 152.969 58.0555 151.039 67.7545C149.11 77.4536 144.348 86.3627 137.355 93.3553C130.363 100.348 121.454 105.11 111.755 107.039C102.055 108.969 92.0021 107.978 82.8658 104.194C73.7295 100.41 65.9206 94.001 60.4265 85.7785C54.9325 77.5561 52 67.8891 52 58" stroke="#FFCE92" stroke-width="10" stroke-linecap="round"/>
<path d="M102 18C108.578 18 115.055 19.6223 120.856 22.7231C126.657 25.824 131.604 30.3077 135.259 35.7772C138.913 41.2466 141.163 47.5329 141.807 54.0793C142.452 60.6257 141.472 67.23 138.955 73.3073C136.438 79.3847 132.461 84.7474 127.376 88.9204C122.291 93.0935 116.255 95.9481 109.804 97.2314C103.352 98.5147 96.6834 98.1871 90.3886 96.2776C84.0938 94.3681 78.3671 90.9356 73.7157 86.2843" stroke="#7F67D2" stroke-width="10" stroke-linecap="round"/>
<path d="M102 28C106.535 28 111.01 29.0083 115.078 30.9468C119.145 32.8854 122.697 35.7022 125.458 39.1795C128.219 42.6568 130.115 46.7012 131 51" stroke="#87CC9E" stroke-width="10" stroke-linecap="round"/>
<path d="M93.2335 61.22C93.2335 61.8467 93.1068 62.4067 92.8535 62.9C92.6002 63.3933 92.2468 63.8133 91.7935 64.16C91.3402 64.4933 90.8002 64.7533 90.1735 64.94C89.5468 65.1133 88.8602 65.2 88.1135 65.2C87.3535 65.2 86.6535 65.1133 86.0135 64.94C85.3868 64.7667 84.8468 64.5133 84.3935 64.18C83.9402 63.8333 83.5868 63.42 83.3335 62.94C83.0802 62.46 82.9535 61.9067 82.9535 61.28C82.9535 60.36 83.2335 59.5933 83.7935 58.98C84.3535 58.3667 85.1068 57.9267 86.0535 57.66C85.2668 57.4333 84.6402 57.06 84.1735 56.54C83.7068 56.0067 83.4735 55.3333 83.4735 54.52C83.4735 53.9467 83.5868 53.44 83.8135 53C84.0402 52.5467 84.3602 52.1667 84.7735 51.86C85.1868 51.5533 85.6735 51.32 86.2335 51.16C86.8068 51 87.4335 50.92 88.1135 50.92C88.7802 50.92 89.3935 51 89.9535 51.16C90.5268 51.3067 91.0202 51.5333 91.4335 51.84C91.8468 52.1333 92.1668 52.5067 92.3935 52.96C92.6335 53.4 92.7535 53.9067 92.7535 54.48C92.7535 55.3067 92.5202 55.9867 92.0535 56.52C91.5868 57.04 90.9602 57.42 90.1735 57.66C91.1068 57.9133 91.8468 58.34 92.3935 58.94C92.9535 59.54 93.2335 60.3 93.2335 61.22ZM88.1135 56.82C88.7935 56.82 89.3535 56.6467 89.7935 56.3C90.2468 55.94 90.4735 55.4333 90.4735 54.78C90.4735 54.06 90.2468 53.5133 89.7935 53.14C89.3535 52.7667 88.7935 52.58 88.1135 52.58C87.4335 52.58 86.8735 52.7667 86.4335 53.14C85.9935 53.5133 85.7735 54.06 85.7735 54.78C85.7735 55.4333 85.9935 55.94 86.4335 56.3C86.8735 56.6467 87.4335 56.82 88.1135 56.82ZM88.1135 63.54C88.8868 63.54 89.5268 63.3133 90.0335 62.86C90.5402 62.4067 90.7935 61.7533 90.7935 60.9C90.7935 60.1133 90.5402 59.5067 90.0335 59.08C89.5268 58.6533 88.8868 58.44 88.1135 58.44C87.3135 58.44 86.6602 58.6533 86.1535 59.08C85.6468 59.5067 85.3935 60.1133 85.3935 60.9C85.3935 61.7533 85.6468 62.4067 86.1535 62.86C86.6602 63.3133 87.3135 63.54 88.1135 63.54ZM100.3 65.2C99.4864 65.2 98.7264 65.0533 98.0198 64.76C97.3131 64.4667 96.6931 64.0267 96.1598 63.44C95.6398 62.84 95.2264 62.0933 94.9198 61.2C94.6131 60.2933 94.4598 59.24 94.4598 58.04C94.4598 56.8267 94.6131 55.7733 94.9198 54.88C95.2264 53.9867 95.6398 53.2467 96.1598 52.66C96.6931 52.0733 97.3131 51.64 98.0198 51.36C98.7264 51.0667 99.4864 50.92 100.3 50.92C101.1 50.92 101.853 51.0667 102.56 51.36C103.266 51.64 103.88 52.0733 104.4 52.66C104.933 53.2333 105.346 53.9667 105.64 54.86C105.946 55.7533 106.1 56.8 106.1 58C106.1 59.2 105.946 60.2533 105.64 61.16C105.346 62.0533 104.933 62.8 104.4 63.4C103.88 64 103.266 64.4533 102.56 64.76C101.853 65.0533 101.1 65.2 100.3 65.2ZM100.28 63.56C100.76 63.56 101.2 63.4667 101.6 63.28C102.013 63.0933 102.366 62.7867 102.66 62.36C102.966 61.92 103.2 61.3533 103.36 60.66C103.533 59.9533 103.62 59.0867 103.62 58.06C103.62 57.0333 103.533 56.1733 103.36 55.48C103.186 54.7733 102.946 54.2067 102.64 53.78C102.346 53.34 102 53.0267 101.6 52.84C101.2 52.6533 100.766 52.56 100.3 52.56C99.8331 52.56 99.3931 52.6533 98.9798 52.84C98.5664 53.0267 98.2064 53.34 97.8998 53.78C97.6064 54.2067 97.3731 54.7733 97.1998 55.48C97.0264 56.1733 96.9398 57.0333 96.9398 58.06C96.9398 59.0867 97.0198 59.9533 97.1798 60.66C97.3531 61.3533 97.5864 61.92 97.8798 62.36C98.1864 62.7867 98.5398 63.0933 98.9398 63.28C99.3531 63.4667 99.7998 63.56 100.28 63.56ZM109.727 65.16L117.947 50.96H119.727L111.467 65.16H109.727ZM113.547 54.86C113.547 55.4733 113.46 56.02 113.287 56.5C113.127 56.9667 112.893 57.3667 112.587 57.7C112.293 58.02 111.947 58.2667 111.547 58.44C111.147 58.6 110.713 58.68 110.247 58.68C109.767 58.68 109.327 58.6 108.927 58.44C108.527 58.28 108.18 58.0467 107.887 57.74C107.593 57.42 107.36 57.0267 107.187 56.56C107.027 56.0933 106.947 55.5533 106.947 54.94C106.947 54.3267 107.027 53.78 107.187 53.3C107.36 52.82 107.593 52.42 107.887 52.1C108.18 51.7667 108.527 51.52 108.927 51.36C109.327 51.1867 109.767 51.1 110.247 51.1C110.713 51.1 111.147 51.18 111.547 51.34C111.947 51.5 112.293 51.74 112.587 52.06C112.893 52.38 113.127 52.7733 113.287 53.24C113.46 53.7067 113.547 54.2467 113.547 54.86ZM108.847 54.9C108.847 55.82 108.973 56.4733 109.227 56.86C109.48 57.2333 109.82 57.42 110.247 57.42C110.673 57.42 111.013 57.2333 111.267 56.86C111.52 56.4733 111.647 55.82 111.647 54.9C111.647 53.9667 111.52 53.3133 111.267 52.94C111.013 52.5533 110.673 52.36 110.247 52.36C109.82 52.36 109.48 52.5533 109.227 52.94C108.973 53.3133 108.847 53.9667 108.847 54.9ZM122.487 61.18C122.487 61.7933 122.4 62.34 122.227 62.82C122.067 63.2867 121.84 63.6867 121.547 64.02C121.253 64.34 120.9 64.5867 120.487 64.76C120.087 64.92 119.653 65 119.187 65C118.707 65 118.267 64.92 117.867 64.76C117.467 64.6 117.12 64.3667 116.827 64.06C116.547 63.74 116.32 63.3467 116.147 62.88C115.987 62.4133 115.907 61.8733 115.907 61.26C115.907 60.6467 115.987 60.1 116.147 59.62C116.32 59.14 116.547 58.74 116.827 58.42C117.12 58.0867 117.467 57.84 117.867 57.68C118.267 57.5067 118.707 57.42 119.187 57.42C119.653 57.42 120.087 57.5 120.487 57.66C120.9 57.82 121.253 58.06 121.547 58.38C121.84 58.7 122.067 59.0933 122.227 59.56C122.4 60.0267 122.487 60.5667 122.487 61.18ZM119.187 58.7C118.76 58.7 118.42 58.8933 118.167 59.28C117.927 59.6533 117.807 60.3 117.807 61.22C117.807 62.14 117.927 62.7933 118.167 63.18C118.42 63.5533 118.76 63.74 119.187 63.74C119.627 63.74 119.973 63.5533 120.227 63.18C120.48 62.7933 120.607 62.14 120.607 61.22C120.607 60.3 120.48 59.6533 120.227 59.28C119.973 58.8933 119.627 58.7 119.187 58.7Z" fill="#1A1B22"/>
<path d="M45.025 2.113H46.565L49.392 10H48.292L47.478 7.745H43.991L43.188 10H42.22L45.025 2.113ZM47.148 6.81L45.74 2.883L44.332 6.81H47.148ZM54.1372 7.47H51.3762V10H50.4082V4.291H51.3762V6.645H54.1372V4.291H55.1052V10H54.1372V7.47ZM57.6604 8.68L60.7074 4.291H61.6864V10H60.7184V5.622L57.6824 10H56.6924V4.291H57.6604V8.68ZM68.7116 5.413L66.7756 9.362H66.0056L64.1796 5.391V10H63.2666V4.291H64.7076L66.4566 8.119L68.3266 4.291H69.6686V10H68.7116V5.413ZM74.5921 8.911C74.5261 9.043 74.4417 9.18233 74.3391 9.329C74.2364 9.46833 74.1081 9.59667 73.9541 9.714C73.8001 9.83133 73.6167 9.92667 73.4041 10C73.1987 10.0733 72.9567 10.11 72.6781 10.11C72.1647 10.11 71.7504 9.967 71.4351 9.681C71.1197 9.38767 70.9621 8.96967 70.9621 8.427C70.9621 7.80367 71.1784 7.34533 71.6111 7.052C72.0511 6.75867 72.6744 6.612 73.4811 6.612H74.5481V6.139C74.5481 5.743 74.4454 5.46067 74.2401 5.292C74.0347 5.12333 73.6827 5.039 73.1841 5.039C72.8321 5.039 72.4984 5.09767 72.1831 5.215C71.8677 5.325 71.5854 5.45333 71.3361 5.6V4.731C71.5414 4.60633 71.8164 4.48533 72.1611 4.368C72.5131 4.24333 72.8981 4.181 73.3161 4.181C74.0347 4.181 74.5811 4.33133 74.9551 4.632C75.3291 4.92533 75.5161 5.38367 75.5161 6.007V9.076C75.5161 9.142 75.5161 9.219 75.5161 9.307C75.5234 9.38767 75.5271 9.472 75.5271 9.56C75.5344 9.648 75.5417 9.73233 75.5491 9.813C75.5564 9.88633 75.5637 9.94867 75.5711 10H74.6911C74.6691 9.89733 74.6471 9.75433 74.6251 9.571C74.6104 9.38033 74.6031 9.21533 74.6031 9.076L74.5921 8.911ZM72.8871 9.241C73.1877 9.241 73.4444 9.17867 73.6571 9.054C73.8697 8.92933 74.0421 8.78633 74.1741 8.625C74.3061 8.45633 74.4014 8.295 74.4601 8.141C74.5187 7.97967 74.5481 7.866 74.5481 7.8V7.382H73.5801C73.0007 7.382 72.5791 7.46633 72.3151 7.635C72.0584 7.79633 71.9301 8.042 71.9301 8.372C71.9301 8.62867 72.0071 8.83767 72.1611 8.999C72.3151 9.16033 72.5571 9.241 72.8871 9.241ZM81.6911 10H77.0381V4.291H78.0061V9.175H80.8111V4.291H81.7791V9.175H82.6371V11.628H81.8121L81.6911 10ZM84.6125 8.68L87.6595 4.291H88.6385V10H87.6705V5.622L84.6345 10H83.6445V4.291H84.6125V8.68ZM90.2188 6.139C90.2188 5.81633 90.2774 5.54133 90.3948 5.314C90.5121 5.07933 90.6771 4.88867 90.8898 4.742C91.1024 4.588 91.3554 4.47433 91.6488 4.401C91.9421 4.32767 92.2611 4.291 92.6058 4.291H94.4428V10H93.4748V7.932H92.4298L90.9668 10H89.8118L91.4618 7.69C91.0658 7.57267 90.7578 7.393 90.5378 7.151C90.3251 6.909 90.2188 6.57167 90.2188 6.139ZM93.4748 7.107V5.116H92.6058C92.1951 5.116 91.8578 5.193 91.5938 5.347C91.3298 5.501 91.1978 5.75033 91.1978 6.095C91.1978 6.45433 91.3151 6.71467 91.5498 6.876C91.7844 7.03 92.1181 7.107 92.5508 7.107H93.4748Z" fill="#1A1B22"/>
<path d="M0.924 14.113H3.597C4.46233 14.113 5.11867 14.2597 5.566 14.553C6.02067 14.8463 6.248 15.3413 6.248 16.038C6.248 16.324 6.20767 16.5733 6.127 16.786C6.05367 16.9913 5.94733 17.171 5.808 17.325C5.676 17.4717 5.511 17.5927 5.313 17.688C5.12233 17.7833 4.90967 17.8567 4.675 17.908C5.291 17.9813 5.753 18.161 6.061 18.447C6.37633 18.7257 6.534 19.151 6.534 19.723C6.534 20.1337 6.457 20.4857 6.303 20.779C6.15633 21.065 5.951 21.2997 5.687 21.483C5.423 21.659 5.11133 21.791 4.752 21.879C4.39267 21.9597 4.00033 22 3.575 22H0.924V14.113ZM1.958 15.059V17.479H3.52C3.76933 17.479 3.99667 17.4533 4.202 17.402C4.40733 17.3433 4.58333 17.259 4.73 17.149C4.87667 17.0317 4.99033 16.8887 5.071 16.72C5.159 16.544 5.203 16.335 5.203 16.093C5.203 15.6897 5.06367 15.4183 4.785 15.279C4.50633 15.1323 4.11033 15.059 3.597 15.059H1.958ZM1.958 18.414V21.065H3.575C3.85367 21.065 4.10667 21.043 4.334 20.999C4.56133 20.955 4.75567 20.8817 4.917 20.779C5.08567 20.6763 5.214 20.5407 5.302 20.372C5.39733 20.2033 5.445 19.9943 5.445 19.745C5.445 19.2463 5.28367 18.9017 4.961 18.711C4.64567 18.513 4.14333 18.414 3.454 18.414H1.958ZM12.4248 21.516C12.3442 21.5747 12.2452 21.637 12.1278 21.703C12.0105 21.769 11.8675 21.835 11.6988 21.901C11.5302 21.9597 11.3395 22.0073 11.1268 22.044C10.9142 22.088 10.6758 22.11 10.4118 22.11C9.45118 22.11 8.72151 21.8497 8.22284 21.329C7.72418 20.8083 7.47484 20.0787 7.47484 19.14C7.47484 18.678 7.54084 18.2637 7.67284 17.897C7.81218 17.5303 8.00284 17.2223 8.24484 16.973C8.48684 16.7163 8.77284 16.522 9.10284 16.39C9.43284 16.2507 9.79218 16.181 10.1808 16.181C10.5915 16.181 10.9582 16.2507 11.2808 16.39C11.6035 16.5293 11.8675 16.7347 12.0728 17.006C12.2855 17.2773 12.4285 17.6147 12.5018 18.018C12.5825 18.414 12.5825 18.876 12.5018 19.404H8.47584C8.51251 20.02 8.69584 20.482 9.02584 20.79C9.35584 21.0907 9.84718 21.241 10.4998 21.241C10.9398 21.241 11.3175 21.1787 11.6328 21.054C11.9482 20.9293 12.2122 20.7937 12.4248 20.647V21.516ZM10.1588 17.039C9.74084 17.039 9.38151 17.1673 9.08084 17.424C8.78018 17.6807 8.58951 18.0693 8.50884 18.59H11.5778C11.6072 18.062 11.4862 17.6733 11.2148 17.424C10.9435 17.1673 10.5915 17.039 10.1588 17.039ZM18.9488 19.14C18.9488 19.6167 18.8755 20.0383 18.7288 20.405C18.5895 20.7717 18.3951 21.0833 18.1458 21.34C17.9038 21.5893 17.6141 21.78 17.2768 21.912C16.9395 22.044 16.5728 22.11 16.1768 22.11C15.7735 22.11 15.4031 22.044 15.0658 21.912C14.7285 21.7727 14.4388 21.5637 14.1968 21.285C13.9548 21.0063 13.7641 20.6543 13.6248 20.229C13.4928 19.8037 13.4268 19.3013 13.4268 18.722C13.4268 18.2453 13.4415 17.7907 13.4708 17.358C13.5001 16.9253 13.5661 16.5257 13.6688 16.159C13.7715 15.785 13.9181 15.4513 14.1088 15.158C14.3068 14.8573 14.5708 14.608 14.9008 14.41C15.0841 14.3 15.2748 14.2193 15.4728 14.168C15.6708 14.1093 15.8688 14.0653 16.0668 14.036C16.2721 14.0067 16.4775 13.9883 16.6828 13.981C16.8881 13.9737 17.0898 13.9663 17.2878 13.959C17.5811 13.937 17.8268 13.9003 18.0248 13.849C18.2228 13.7977 18.3988 13.728 18.5528 13.64V14.52C18.3915 14.6227 18.2191 14.696 18.0358 14.74C17.8598 14.7767 17.6435 14.8097 17.3868 14.839C16.9688 14.8757 16.5838 14.905 16.2318 14.927C15.8871 14.9417 15.5718 15.0223 15.2858 15.169C14.9191 15.3743 14.6588 15.6823 14.5048 16.093C14.3581 16.4963 14.2665 16.9767 14.2298 17.534C14.6111 16.654 15.3298 16.214 16.3858 16.214C16.7451 16.214 17.0788 16.28 17.3868 16.412C17.7021 16.5367 17.9735 16.7237 18.2008 16.973C18.4355 17.2223 18.6188 17.5303 18.7508 17.897C18.8828 18.2563 18.9488 18.6707 18.9488 19.14ZM16.1768 21.241C16.4335 21.241 16.6681 21.2007 16.8808 21.12C17.1008 21.032 17.2915 20.9037 17.4528 20.735C17.6141 20.559 17.7388 20.339 17.8268 20.075C17.9148 19.811 17.9588 19.4993 17.9588 19.14C17.9588 18.7807 17.9148 18.469 17.8268 18.205C17.7388 17.941 17.6141 17.7247 17.4528 17.556C17.2915 17.38 17.1008 17.2517 16.8808 17.171C16.6681 17.083 16.4335 17.039 16.1768 17.039C15.6708 17.039 15.2491 17.2077 14.9118 17.545C14.5818 17.8823 14.4168 18.403 14.4168 19.107C14.4168 19.4737 14.4608 19.7927 14.5488 20.064C14.6368 20.328 14.7578 20.548 14.9118 20.724C15.0731 20.9 15.2601 21.032 15.4728 21.12C15.6855 21.2007 15.9201 21.241 16.1768 21.241ZM20.1356 18.205H22.7756V19.085H20.1356V18.205ZM25.7055 19.569H25.1995V22H24.2315V16.291H25.1995V18.744H25.7495L27.7515 16.291H28.8515L26.5085 19.107L28.8955 22H27.7185L25.7055 19.569ZM32.0422 22.11C31.6536 22.11 31.2906 22.044 30.9532 21.912C30.6159 21.78 30.3226 21.5893 30.0732 21.34C29.8312 21.0833 29.6406 20.7717 29.5012 20.405C29.3619 20.0383 29.2922 19.6167 29.2922 19.14C29.2922 18.6707 29.3619 18.2527 29.5012 17.886C29.6406 17.512 29.8312 17.2003 30.0732 16.951C30.3226 16.7017 30.6159 16.511 30.9532 16.379C31.2906 16.247 31.6536 16.181 32.0422 16.181C32.4382 16.181 32.8049 16.247 33.1422 16.379C33.4796 16.511 33.7692 16.7017 34.0112 16.951C34.2606 17.2003 34.4549 17.512 34.5942 17.886C34.7409 18.2527 34.8142 18.6707 34.8142 19.14C34.8142 19.6167 34.7409 20.0383 34.5942 20.405C34.4549 20.7717 34.2606 21.0833 34.0112 21.34C33.7692 21.5893 33.4796 21.78 33.1422 21.912C32.8049 22.044 32.4382 22.11 32.0422 22.11ZM32.0422 21.241C32.2989 21.241 32.5336 21.2007 32.7462 21.12C32.9662 21.032 33.1569 20.9037 33.3182 20.735C33.4796 20.559 33.6042 20.339 33.6922 20.075C33.7802 19.811 33.8242 19.4993 33.8242 19.14C33.8242 18.7807 33.7802 18.469 33.6922 18.205C33.6042 17.941 33.4796 17.7247 33.3182 17.556C33.1569 17.38 32.9662 17.2517 32.7462 17.171C32.5336 17.083 32.2989 17.039 32.0422 17.039C31.7856 17.039 31.5509 17.083 31.3382 17.171C31.1256 17.2517 30.9386 17.38 30.7772 17.556C30.6232 17.7247 30.5022 17.941 30.4142 18.205C30.3262 18.469 30.2822 18.7807 30.2822 19.14C30.2822 19.4993 30.3262 19.811 30.4142 20.075C30.5022 20.339 30.6232 20.559 30.7772 20.735C30.9386 20.9037 31.1256 21.032 31.3382 21.12C31.5509 21.2007 31.7856 21.241 32.0422 21.241ZM39.7231 19.47H36.9621V22H35.9941V16.291H36.9621V18.645H39.7231V16.291H40.6911V22H39.7231V19.47ZM44.7423 22.11C44.3023 22.11 43.9027 22.044 43.5433 21.912C43.1913 21.7727 42.8907 21.5783 42.6413 21.329C42.392 21.0723 42.2013 20.7607 42.0693 20.394C41.9373 20.0273 41.8713 19.6093 41.8713 19.14C41.8713 18.678 41.9373 18.2637 42.0693 17.897C42.2087 17.5303 42.403 17.2223 42.6523 16.973C42.9017 16.7163 43.206 16.522 43.5653 16.39C43.9247 16.2507 44.3317 16.181 44.7863 16.181C45.1383 16.181 45.461 16.2213 45.7543 16.302C46.0477 16.3753 46.2897 16.4853 46.4803 16.632V17.501C46.2457 17.347 45.9817 17.2333 45.6883 17.16C45.4023 17.0793 45.1053 17.039 44.7973 17.039C44.13 17.039 43.6387 17.2113 43.3233 17.556C43.0153 17.9007 42.8613 18.4287 42.8613 19.14C42.8613 19.8513 43.0117 20.3793 43.3123 20.724C43.613 21.0687 44.0897 21.241 44.7423 21.241C45.087 21.241 45.4023 21.2007 45.6883 21.12C45.9817 21.032 46.2457 20.922 46.4803 20.79V21.659C46.275 21.7837 46.0257 21.89 45.7323 21.978C45.4463 22.066 45.1163 22.11 44.7423 22.11ZM50.0773 17.116V22H49.1093V17.116H47.3163V16.291H51.9033V17.116H50.0773ZM55.8915 22.11C55.4515 22.11 55.0702 22.0073 54.7475 21.802C54.4322 21.5967 54.1792 21.3143 53.9885 20.955V23.947H53.0205V16.291H53.8675L53.9665 17.402C54.1572 17.028 54.4138 16.731 54.7365 16.511C55.0592 16.291 55.4588 16.181 55.9355 16.181C56.2655 16.181 56.5808 16.2433 56.8815 16.368C57.1895 16.4853 57.4572 16.6687 57.6845 16.918C57.9192 17.16 58.1025 17.468 58.2345 17.842C58.3738 18.2087 58.4435 18.6413 58.4435 19.14C58.4435 19.646 58.3738 20.086 58.2345 20.46C58.0952 20.8267 57.9082 21.1347 57.6735 21.384C57.4388 21.626 57.1675 21.8093 56.8595 21.934C56.5515 22.0513 56.2288 22.11 55.8915 22.11ZM55.7485 21.241C56.2545 21.241 56.6615 21.0687 56.9695 20.724C57.2848 20.372 57.4425 19.844 57.4425 19.14C57.4425 18.4507 57.2848 17.93 56.9695 17.578C56.6615 17.2187 56.2545 17.039 55.7485 17.039C55.4992 17.039 55.2645 17.083 55.0445 17.171C54.8318 17.259 54.6448 17.391 54.4835 17.567C54.3295 17.7357 54.2048 17.952 54.1095 18.216C54.0215 18.48 53.9775 18.788 53.9775 19.14C53.9775 19.492 54.0215 19.8 54.1095 20.064C54.2048 20.328 54.3295 20.548 54.4835 20.724C54.6448 20.9 54.8318 21.032 55.0445 21.12C55.2645 21.2007 55.4992 21.241 55.7485 21.241ZM62.3675 21.934C62.2355 22.2787 62.0962 22.5793 61.9495 22.836C61.8028 23.1 61.6378 23.3237 61.4545 23.507C61.2712 23.6903 61.0658 23.826 60.8385 23.914C60.6112 24.0093 60.3508 24.057 60.0575 24.057C59.9108 24.057 59.7752 24.046 59.6505 24.024C59.5258 24.0093 59.4122 23.98 59.3095 23.936V23.001C59.3902 23.0597 59.4928 23.1037 59.6175 23.133C59.7422 23.1697 59.8778 23.188 60.0245 23.188C60.2958 23.188 60.5195 23.122 60.6955 22.99C60.8715 22.8653 61.0402 22.6637 61.2015 22.385L58.8805 16.291H59.9475L61.7625 21.109L63.5665 16.291H64.5015L62.3675 21.934ZM66.934 19.569H66.428V22H65.46V16.291H66.428V18.744H66.978L68.98 16.291H70.08L67.737 19.107L70.124 22H68.947L66.934 19.569ZM73.4416 17.116V22H72.4736V17.116H70.6806V16.291H75.2676V17.116H73.4416ZM78.5666 22.11C78.178 22.11 77.815 22.044 77.4776 21.912C77.1403 21.78 76.847 21.5893 76.5976 21.34C76.3556 21.0833 76.165 20.7717 76.0256 20.405C75.8863 20.0383 75.8166 19.6167 75.8166 19.14C75.8166 18.6707 75.8863 18.2527 76.0256 17.886C76.165 17.512 76.3556 17.2003 76.5976 16.951C76.847 16.7017 77.1403 16.511 77.4776 16.379C77.815 16.247 78.178 16.181 78.5666 16.181C78.9626 16.181 79.3293 16.247 79.6666 16.379C80.004 16.511 80.2936 16.7017 80.5356 16.951C80.785 17.2003 80.9793 17.512 81.1186 17.886C81.2653 18.2527 81.3386 18.6707 81.3386 19.14C81.3386 19.6167 81.2653 20.0383 81.1186 20.405C80.9793 20.7717 80.785 21.0833 80.5356 21.34C80.2936 21.5893 80.004 21.78 79.6666 21.912C79.3293 22.044 78.9626 22.11 78.5666 22.11ZM78.5666 21.241C78.8233 21.241 79.058 21.2007 79.2706 21.12C79.4906 21.032 79.6813 20.9037 79.8426 20.735C80.004 20.559 80.1286 20.339 80.2166 20.075C80.3046 19.811 80.3486 19.4993 80.3486 19.14C80.3486 18.7807 80.3046 18.469 80.2166 18.205C80.1286 17.941 80.004 17.7247 79.8426 17.556C79.6813 17.38 79.4906 17.2517 79.2706 17.171C79.058 17.083 78.8233 17.039 78.5666 17.039C78.31 17.039 78.0753 17.083 77.8626 17.171C77.65 17.2517 77.463 17.38 77.3016 17.556C77.1476 17.7247 77.0266 17.941 76.9386 18.205C76.8506 18.469 76.8066 18.7807 76.8066 19.14C76.8066 19.4993 76.8506 19.811 76.9386 20.075C77.0266 20.339 77.1476 20.559 77.3016 20.735C77.463 20.9037 77.65 21.032 77.8626 21.12C78.0753 21.2007 78.31 21.241 78.5666 21.241ZM85.3896 22.11C84.9496 22.11 84.5682 22.0073 84.2456 21.802C83.9302 21.5967 83.6772 21.3143 83.4866 20.955V23.947H82.5186V16.291H83.3656L83.4646 17.402C83.6552 17.028 83.9119 16.731 84.2346 16.511C84.5572 16.291 84.9569 16.181 85.4336 16.181C85.7636 16.181 86.0789 16.2433 86.3796 16.368C86.6876 16.4853 86.9552 16.6687 87.1826 16.918C87.4172 17.16 87.6006 17.468 87.7326 17.842C87.8719 18.2087 87.9416 18.6413 87.9416 19.14C87.9416 19.646 87.8719 20.086 87.7326 20.46C87.5932 20.8267 87.4062 21.1347 87.1716 21.384C86.9369 21.626 86.6656 21.8093 86.3576 21.934C86.0496 22.0513 85.7269 22.11 85.3896 22.11ZM85.2466 21.241C85.7526 21.241 86.1596 21.0687 86.4676 20.724C86.7829 20.372 86.9406 19.844 86.9406 19.14C86.9406 18.4507 86.7829 17.93 86.4676 17.578C86.1596 17.2187 85.7526 17.039 85.2466 17.039C84.9972 17.039 84.7626 17.083 84.5426 17.171C84.3299 17.259 84.1429 17.391 83.9816 17.567C83.8276 17.7357 83.7029 17.952 83.6076 18.216C83.5196 18.48 83.4756 18.788 83.4756 19.14C83.4756 19.492 83.5196 19.8 83.6076 20.064C83.7029 20.328 83.8276 20.548 83.9816 20.724C84.1429 20.9 84.3299 21.032 84.5426 21.12C84.7626 21.2007 84.9972 21.241 85.2466 21.241ZM93.3383 20.097C93.3383 20.427 93.2796 20.713 93.1623 20.955C93.0449 21.197 92.8799 21.395 92.6673 21.549C92.4546 21.703 92.2016 21.8167 91.9083 21.89C91.6149 21.9633 91.2959 22 90.9513 22H89.1143V16.291H90.0823V18.282H91.0173C91.7433 18.282 92.3116 18.425 92.7223 18.711C93.1329 18.997 93.3383 19.459 93.3383 20.097ZM95.1313 22H94.1633V16.291H95.1313V22ZM90.0823 19.107V21.175H90.9513C91.3693 21.175 91.7066 21.098 91.9633 20.944C92.2273 20.7827 92.3593 20.5187 92.3593 20.152C92.3593 19.778 92.2419 19.5103 92.0073 19.349C91.7726 19.1877 91.4426 19.107 91.0173 19.107H90.0823Z" fill="#1A1B22"/>
<path d="M31.806 27.07V34H30.761V27.07H28.33V26.113H34.237V27.07H31.806ZM35.6682 32.68L38.7152 28.291H39.6942V34H38.7262V29.622L35.6902 34H34.7002V28.291H35.6682V32.68ZM41.2744 28.291H45.8504V34H44.8824V29.116H42.2424V34H41.2744V28.291ZM49.7727 34.11C49.384 34.11 49.021 34.044 48.6837 33.912C48.3464 33.78 48.053 33.5893 47.8037 33.34C47.5617 33.0833 47.371 32.7717 47.2317 32.405C47.0924 32.0383 47.0227 31.6167 47.0227 31.14C47.0227 30.6707 47.0924 30.2527 47.2317 29.886C47.371 29.512 47.5617 29.2003 47.8037 28.951C48.053 28.7017 48.3464 28.511 48.6837 28.379C49.021 28.247 49.384 28.181 49.7727 28.181C50.1687 28.181 50.5354 28.247 50.8727 28.379C51.21 28.511 51.4997 28.7017 51.7417 28.951C51.991 29.2003 52.1854 29.512 52.3247 29.886C52.4714 30.2527 52.5447 30.6707 52.5447 31.14C52.5447 31.6167 52.4714 32.0383 52.3247 32.405C52.1854 32.7717 51.991 33.0833 51.7417 33.34C51.4997 33.5893 51.21 33.78 50.8727 33.912C50.5354 34.044 50.1687 34.11 49.7727 34.11ZM49.7727 33.241C50.0294 33.241 50.264 33.2007 50.4767 33.12C50.6967 33.032 50.8874 32.9037 51.0487 32.735C51.21 32.559 51.3347 32.339 51.4227 32.075C51.5107 31.811 51.5547 31.4993 51.5547 31.14C51.5547 30.7807 51.5107 30.469 51.4227 30.205C51.3347 29.941 51.21 29.7247 51.0487 29.556C50.8874 29.38 50.6967 29.2517 50.4767 29.171C50.264 29.083 50.0294 29.039 49.7727 29.039C49.516 29.039 49.2814 29.083 49.0687 29.171C48.856 29.2517 48.669 29.38 48.5077 29.556C48.3537 29.7247 48.2327 29.941 48.1447 30.205C48.0567 30.469 48.0127 30.7807 48.0127 31.14C48.0127 31.4993 48.0567 31.811 48.1447 32.075C48.2327 32.339 48.3537 32.559 48.5077 32.735C48.669 32.9037 48.856 33.032 49.0687 33.12C49.2814 33.2007 49.516 33.241 49.7727 33.241ZM53.7246 28.291H57.3546V29.116H54.6926V34H53.7246V28.291ZM61.3974 34.11C60.9574 34.11 60.576 34.0073 60.2534 33.802C59.938 33.5967 59.685 33.3143 59.4944 32.955V35.947H58.5264V28.291H59.3734L59.4724 29.402C59.663 29.028 59.9197 28.731 60.2424 28.511C60.565 28.291 60.9647 28.181 61.4414 28.181C61.7714 28.181 62.0867 28.2433 62.3874 28.368C62.6954 28.4853 62.963 28.6687 63.1904 28.918C63.425 29.16 63.6084 29.468 63.7404 29.842C63.8797 30.2087 63.9494 30.6413 63.9494 31.14C63.9494 31.646 63.8797 32.086 63.7404 32.46C63.601 32.8267 63.414 33.1347 63.1794 33.384C62.9447 33.626 62.6734 33.8093 62.3654 33.934C62.0574 34.0513 61.7347 34.11 61.3974 34.11ZM61.2544 33.241C61.7604 33.241 62.1674 33.0687 62.4754 32.724C62.7907 32.372 62.9484 31.844 62.9484 31.14C62.9484 30.4507 62.7907 29.93 62.4754 29.578C62.1674 29.2187 61.7604 29.039 61.2544 29.039C61.005 29.039 60.7704 29.083 60.5504 29.171C60.3377 29.259 60.1507 29.391 59.9894 29.567C59.8354 29.7357 59.7107 29.952 59.6154 30.216C59.5274 30.48 59.4834 30.788 59.4834 31.14C59.4834 31.492 59.5274 31.8 59.6154 32.064C59.7107 32.328 59.8354 32.548 59.9894 32.724C60.1507 32.9 60.3377 33.032 60.5504 33.12C60.7704 33.2007 61.005 33.241 61.2544 33.241ZM68.4124 32.911C68.3464 33.043 68.262 33.1823 68.1594 33.329C68.0567 33.4683 67.9284 33.5967 67.7744 33.714C67.6204 33.8313 67.437 33.9267 67.2244 34C67.019 34.0733 66.777 34.11 66.4984 34.11C65.985 34.11 65.5707 33.967 65.2554 33.681C64.94 33.3877 64.7824 32.9697 64.7824 32.427C64.7824 31.8037 64.9987 31.3453 65.4314 31.052C65.8714 30.7587 66.4947 30.612 67.3014 30.612H68.3684V30.139C68.3684 29.743 68.2657 29.4607 68.0604 29.292C67.855 29.1233 67.503 29.039 67.0044 29.039C66.6524 29.039 66.3187 29.0977 66.0034 29.215C65.688 29.325 65.4057 29.4533 65.1564 29.6V28.731C65.3617 28.6063 65.6367 28.4853 65.9814 28.368C66.3334 28.2433 66.7184 28.181 67.1364 28.181C67.855 28.181 68.4014 28.3313 68.7754 28.632C69.1494 28.9253 69.3364 29.3837 69.3364 30.007V33.076C69.3364 33.142 69.3364 33.219 69.3364 33.307C69.3437 33.3877 69.3474 33.472 69.3474 33.56C69.3547 33.648 69.362 33.7323 69.3694 33.813C69.3767 33.8863 69.384 33.9487 69.3914 34H68.5114C68.4894 33.8973 68.4674 33.7543 68.4454 33.571C68.4307 33.3803 68.4234 33.2153 68.4234 33.076L68.4124 32.911ZM66.7074 33.241C67.008 33.241 67.2647 33.1787 67.4774 33.054C67.69 32.9293 67.8624 32.7863 67.9944 32.625C68.1264 32.4563 68.2217 32.295 68.2804 32.141C68.339 31.9797 68.3684 31.866 68.3684 31.8V31.382H67.4004C66.821 31.382 66.3994 31.4663 66.1354 31.635C65.8787 31.7963 65.7504 32.042 65.7504 32.372C65.7504 32.6287 65.8274 32.8377 65.9814 32.999C66.1354 33.1603 66.3774 33.241 66.7074 33.241ZM77.5464 31.14C77.5464 31.6167 77.4657 32.0347 77.3044 32.394C77.1431 32.7533 76.9231 33.0577 76.6444 33.307C76.3731 33.5563 76.0504 33.747 75.6764 33.879C75.3024 34.0037 74.9064 34.0733 74.4884 34.088V35.947H73.5204V34.088C73.0877 34.0733 72.6844 34 72.3104 33.868C71.9437 33.736 71.6211 33.549 71.3424 33.307C71.0637 33.0577 70.8437 32.7533 70.6824 32.394C70.5284 32.0347 70.4514 31.6167 70.4514 31.14C70.4514 30.6707 70.5321 30.2563 70.6934 29.897C70.8547 29.5303 71.0747 29.226 71.3534 28.984C71.6321 28.7347 71.9547 28.5477 72.3214 28.423C72.6954 28.291 73.0951 28.2177 73.5204 28.203V26.003H74.4884V28.203C74.9137 28.2177 75.3097 28.291 75.6764 28.423C76.0504 28.555 76.3731 28.7457 76.6444 28.995C76.9231 29.237 77.1431 29.5377 77.3044 29.897C77.4657 30.2563 77.5464 30.6707 77.5464 31.14ZM76.5564 31.14C76.5564 30.788 76.5014 30.4837 76.3914 30.227C76.2887 29.9703 76.1421 29.7577 75.9514 29.589C75.7681 29.4203 75.5517 29.292 75.3024 29.204C75.0531 29.1087 74.7817 29.0537 74.4884 29.039V33.241C74.7817 33.2263 75.0531 33.175 75.3024 33.087C75.5591 32.9917 75.7791 32.8597 75.9624 32.691C76.1457 32.5223 76.2887 32.3097 76.3914 32.053C76.5014 31.7963 76.5564 31.492 76.5564 31.14ZM71.4414 31.14C71.4414 31.492 71.4927 31.7963 71.5954 32.053C71.7054 32.3097 71.8521 32.526 72.0354 32.702C72.2261 32.8707 72.4461 32.999 72.6954 33.087C72.9521 33.175 73.2271 33.2263 73.5204 33.241V29.039C73.2197 29.0537 72.9411 29.1087 72.6844 29.204C72.4351 29.292 72.2187 29.424 72.0354 29.6C71.8521 29.7687 71.7054 29.9813 71.5954 30.238C71.4927 30.4947 71.4414 30.7953 71.4414 31.14ZM79.7004 32.68L82.7474 28.291H83.7264V34H82.7584V29.622L79.7224 34H78.7324V28.291H79.7004V32.68ZM86.7806 31.569H86.2746V34H85.3066V28.291H86.2746V30.744H86.8246L88.8266 28.291H89.9266L87.5836 31.107L89.9706 34H88.7936L86.7806 31.569ZM94.2258 32.911C94.1598 33.043 94.0755 33.1823 93.9728 33.329C93.8702 33.4683 93.7418 33.5967 93.5878 33.714C93.4338 33.8313 93.2505 33.9267 93.0378 34C92.8325 34.0733 92.5905 34.11 92.3118 34.11C91.7985 34.11 91.3842 33.967 91.0688 33.681C90.7535 33.3877 90.5958 32.9697 90.5958 32.427C90.5958 31.8037 90.8122 31.3453 91.2448 31.052C91.6848 30.7587 92.3082 30.612 93.1148 30.612H94.1818V30.139C94.1818 29.743 94.0792 29.4607 93.8738 29.292C93.6685 29.1233 93.3165 29.039 92.8178 29.039C92.4658 29.039 92.1322 29.0977 91.8168 29.215C91.5015 29.325 91.2192 29.4533 90.9698 29.6V28.731C91.1752 28.6063 91.4502 28.4853 91.7948 28.368C92.1468 28.2433 92.5318 28.181 92.9498 28.181C93.6685 28.181 94.2148 28.3313 94.5888 28.632C94.9628 28.9253 95.1498 29.3837 95.1498 30.007V33.076C95.1498 33.142 95.1498 33.219 95.1498 33.307C95.1572 33.3877 95.1608 33.472 95.1608 33.56C95.1682 33.648 95.1755 33.7323 95.1828 33.813C95.1902 33.8863 95.1975 33.9487 95.2048 34H94.3248C94.3028 33.8973 94.2808 33.7543 94.2588 33.571C94.2442 33.3803 94.2368 33.2153 94.2368 33.076L94.2258 32.911ZM92.5208 33.241C92.8215 33.241 93.0782 33.1787 93.2908 33.054C93.5035 32.9293 93.6758 32.7863 93.8078 32.625C93.9398 32.4563 94.0352 32.295 94.0938 32.141C94.1525 31.9797 94.1818 31.866 94.1818 31.8V31.382H93.2138C92.6345 31.382 92.2128 31.4663 91.9488 31.635C91.6922 31.7963 91.5638 32.042 91.5638 32.372C91.5638 32.6287 91.6408 32.8377 91.7948 32.999C91.9488 33.1603 92.1908 33.241 92.5208 33.241Z" fill="#1A1B22"/>
</svg>
