<svg width="24" height="24" viewBox="0 0 24 24" fill="none" xmlns="http://www.w3.org/2000/svg">
<path d="M12.5174 5.30812C13.0129 4.74963 13.6154 4.29612 14.2891 3.97437C14.9629 3.65262 15.6943 3.46916 16.4401 3.43483C17.186 3.4005 17.9311 3.51599 18.6316 3.77448C19.332 4.03297 19.9736 4.42922 20.5183 4.93983C21.0631 5.45043 21.5 6.06503 21.8032 6.74731C22.1064 7.4296 22.2698 8.16574 22.2838 8.91224C22.2977 9.65874 22.1619 10.4005 21.8844 11.0936C21.6069 11.7867 21.1933 12.4172 20.668 12.9478L12.4565 21.2381C12.3968 21.2985 12.3256 21.3464 12.2472 21.3792C12.1688 21.4119 12.0847 21.4287 11.9997 21.4287C11.9147 21.4287 11.8306 21.4119 11.7522 21.3792C11.6738 21.3464 11.6026 21.2985 11.5428 21.2381L3.3314 12.9478C2.33539 11.9423 1.75816 10.5961 1.71631 9.18141C1.67447 7.76668 2.17113 6.3888 3.10597 5.32612C5.32426 2.80355 9.25168 2.79497 11.482 5.30812L11.9997 5.89098L12.5174 5.30812Z" fill="#1D6BF3"/>
</svg>
